<?xml version="1.0" encoding="utf-8"?>
<!-- Generator: Adobe Illustrator 15.1.0, SVG Export Plug-In . SVG Version: 6.00 Build 0)  -->
<!DOCTYPE svg PUBLIC "-//W3C//DTD SVG 1.1//EN" "http://www.w3.org/Graphics/SVG/1.1/DTD/svg11.dtd">
<svg version="1.1" id="Ebene_1" xmlns="http://www.w3.org/2000/svg" xmlns:xlink="http://www.w3.org/1999/xlink" x="0px" y="0px"
	 width="192px" height="40px" viewBox="0 0 192 40" enable-background="new 0 0 192 40" xml:space="preserve">
<path fill="#B9C400" d="M16.307,21.933c0,2.252-1.369,2.431-3.682,2.431H8.434c-3.006,0-4.361-0.263-4.367-3.386v-4.89
	c0.047-3.405,1.535-3.355,3.876-3.355h4.567c2.486,0,3.447,0.163,3.442,2.373v0.725h2.976v-0.782c0-3.122-1.822-5.001-6.447-5.001
	H8.318c-3.642,0-7.399,0.607-7.399,5.955v5.091c0,5.351,3.959,5.956,6.185,5.956h5.609c4.625,0,6.38-1.444,6.38-5.175v-1.002h-2.777
	L16.307,21.933z"/>
<path fill="#B9C400" d="M148.205,21.933c0,2.252-1.369,2.431-3.682,2.431h-4.193c-3.004,0-4.359-0.263-4.365-3.386v-4.89
	c0.045-3.405,1.533-3.355,3.875-3.355h4.566c2.488,0,3.447,0.163,3.443,2.373v0.725h2.975v-0.782c0-3.122-1.82-5.001-6.447-5.001
	h-4.162c-3.641,0-7.398,0.607-7.398,5.955v5.091c0,5.351,3.959,5.956,6.186,5.956h5.607c4.625,0,6.381-1.444,6.381-5.175v-1.002
	h-2.777L148.205,21.933z"/>
<path fill="#B9C400" d="M57.058,18.661c0,3.47-0.667,5.702-6.479,5.702h-0.635c-4.827,0-4.793-1.13-4.772-2.924V10.208h-3.148v11.84
	c0,2.658,1.474,5.001,6.128,5.001h3.728c3.505,0.003,4.368-0.587,5.292-2.87h0.057v2.809h2.976v-16.78h-3.148V18.661z"/>
<path fill="#B9C400" d="M75.863,10.047h-3.988c-3.526,0-7.227,0.607-7.227,5.955v5.007c0,5.435,3.701,6.04,6.938,6.04h4.51
	c4.624,0,7.429-1.012,7.429-4.394v-0.762h-2.959c-0.005,2.239-0.943,2.47-4.065,2.47h-3.411c-4.336,0-5.292-0.204-5.292-3.559
	v-1.588h15.728v-2.214C83.602,10.625,81.123,10.042,75.863,10.047z M80.47,16.626H67.702c0.077-3.378,0.589-4.083,4.521-4.083h3.641
	c3.827,0,4.614,0.638,4.607,2.533V16.626z"/>
<path fill="#B9C400" d="M120.771,10.047h-3.986c-3.527,0-7.227,0.607-7.227,5.955v5.007c0,5.435,3.699,6.04,6.938,6.04h4.508
	c4.625,0,7.43-1.012,7.43-4.394v-0.762h-2.959c-0.006,2.239-0.943,2.47-4.066,2.47h-3.41c-4.336,0-5.293-0.204-5.293-3.559v-1.588
	h15.729v-2.214C128.512,10.625,126.031,10.042,120.771,10.047z M125.379,16.626h-12.768c0.078-3.378,0.59-4.083,4.521-4.083h3.639
	c3.828,0,4.615,0.638,4.607,2.533V16.626z"/>
<path fill="#B9C400" d="M103.561,20.958c-0.082,2.922-0.65,3.501-3.951,3.501H96.33c-2.276-0.096-3.109-0.273-3.109-3.02v-8.305
	h11.926v-2.927H86.925v2.832h3.144v9.355c0,2.398,1.193,4.654,5.856,4.654h3.86c5.385,0,6.447-2.256,6.439-5.29v-0.814h-2.668
	L103.561,20.958z"/>
<path fill="#B9C400" d="M36.198,21.585c-0.07,2.266-0.731,2.718-4.026,2.718h-3.193c-2.717,0-2.998-0.777-3.007-2.923l0-11.18
	h-3.149l0,12.134c0,2.398,1.098,4.655,5.752,4.655h3.771c5.375,0,6.519-2.021,6.519-4.969v-0.598l-2.668,0.008L36.198,21.585z"/>
<path fill="#003A5D" d="M164.992,39.117c-0.25,0.262-0.664,0.271-0.926,0.021l-3.893-3.718c-0.264-0.251-0.271-0.665-0.021-0.926
	l3.66-3.833c0.25-0.263,0.664-0.271,0.926-0.021l3.893,3.72c0.264,0.248,0.27,0.663,0.021,0.923L164.992,39.117z"/>
<path fill="#003A5D" d="M162.928,25.168c-0.135-0.033-0.219-0.172-0.184-0.308l0.494-2.028c0.031-0.138,0.17-0.221,0.307-0.187
	l1.998,0.485c0.135,0.033,0.219,0.171,0.184,0.307l-0.492,2.03c-0.033,0.137-0.17,0.221-0.307,0.187L162.928,25.168z"/>
<path fill="#003A5D" d="M166.557,2.343c0.148-0.157,0.398-0.163,0.555-0.012l2.336,2.231c0.156,0.149,0.162,0.398,0.012,0.555
	l-2.197,2.3c-0.15,0.157-0.398,0.162-0.553,0.013l-2.338-2.232c-0.156-0.149-0.162-0.397-0.012-0.555L166.557,2.343z"/>
<path fill="#003A5D" d="M191.07,16.396c0.209,0.2,0.217,0.532,0.016,0.741l-2.975,3.114c-0.199,0.208-0.531,0.216-0.74,0.016
	l-3.066-2.928c-0.209-0.2-0.215-0.531-0.016-0.741l2.977-3.114c0.199-0.21,0.529-0.217,0.738-0.018L191.07,16.396z"/>
<path fill="#003A5D" d="M179.34,37.473c-0.078,0.328-0.408,0.529-0.738,0.448l-4.881-1.186c-0.328-0.083-0.527-0.412-0.449-0.74
	l1.172-4.807c0.08-0.328,0.408-0.529,0.736-0.449l4.881,1.19c0.33,0.079,0.529,0.409,0.449,0.737L179.34,37.473z"/>
<path fill="#003A5D" d="M169.748,27.955c-0.109,0.032-0.227-0.029-0.26-0.14l-0.479-1.637c-0.031-0.11,0.033-0.225,0.141-0.258
	l1.611-0.471c0.111-0.032,0.225,0.031,0.258,0.14l0.48,1.638c0.031,0.108-0.033,0.223-0.143,0.256L169.748,27.955z"/>
<path fill="#003A5D" d="M159.99,8.979c0.045-0.187,0.234-0.302,0.422-0.256l2.789,0.679c0.188,0.046,0.303,0.235,0.256,0.423
	l-0.668,2.745c-0.045,0.188-0.234,0.303-0.422,0.257l-2.789-0.68c-0.188-0.045-0.303-0.234-0.256-0.421L159.99,8.979z"/>
<path fill="#003A5D" d="M186.334,6.349c0.258,0.062,0.416,0.322,0.354,0.58l-0.934,3.834c-0.064,0.258-0.324,0.416-0.582,0.353
	l-3.775-0.919c-0.258-0.062-0.416-0.322-0.354-0.58l0.934-3.835c0.064-0.258,0.324-0.415,0.582-0.353L186.334,6.349z"/>
<path fill="#003A5D" d="M188.75,28.481c0.086,0.301-0.084,0.616-0.387,0.703l-4.477,1.311c-0.301,0.088-0.617-0.084-0.705-0.386
	l-1.291-4.408c-0.086-0.3,0.086-0.614,0.385-0.702l4.479-1.306c0.301-0.087,0.615,0.084,0.703,0.385L188.75,28.481z"/>
<path fill="#003A5D" d="M175.932,26.298c-0.061,0.062-0.16,0.064-0.223,0.004l-0.934-0.891c-0.064-0.062-0.066-0.16-0.006-0.224
	l0.879-0.919c0.059-0.062,0.16-0.064,0.221-0.004l0.936,0.891c0.062,0.059,0.066,0.159,0.004,0.224L175.932,26.298z"/>
<path fill="#003A5D" d="M158.654,17.395c-0.047-0.163,0.047-0.332,0.209-0.38l2.41-0.705c0.164-0.047,0.332,0.046,0.379,0.209
	l0.697,2.371c0.045,0.163-0.047,0.331-0.209,0.377l-2.41,0.704c-0.162,0.047-0.33-0.044-0.379-0.206L158.654,17.395z"/>
<path fill="#003A5D" d="M176.852,0.851c0.232-0.068,0.475,0.064,0.543,0.295l1.006,3.445c0.068,0.232-0.064,0.475-0.295,0.542
	l-3.391,0.993c-0.232,0.068-0.475-0.065-0.541-0.296l-1.008-3.445c-0.07-0.231,0.064-0.473,0.295-0.54L176.852,0.851z"/>
</svg>
